<?xml version="1.0" standalone="no"?>
<!DOCTYPE svg PUBLIC "-//W3C//DTD SVG 20010904//EN"
 "http://www.w3.org/TR/2001/REC-SVG-20010904/DTD/svg10.dtd">
<svg version="1.0" xmlns="http://www.w3.org/2000/svg"
 width="200.000000pt" height="200.000000pt" viewBox="0 0 200.000000 200.000000"
 preserveAspectRatio="xMidYMid meet">

<g transform="translate(0.000000,200.000000) scale(0.100000,-0.100000)"
fill="#000000" stroke="none">
<path d="M860 1465 c-19 -14 -37 -31 -42 -37 -4 -7 -8 -107 -8 -223 l0 -210
72 -234 c56 -181 78 -237 95 -248 44 -29 55 -9 131 235 l72 229 0 226 0 225
-39 31 c-21 17 -43 31 -47 31 -5 0 -8 -107 -6 -237 l3 -238 -42 -140 c-23 -77
-45 -143 -49 -148 -3 -4 -25 53 -48 127 l-42 134 0 251 c0 138 -4 251 -8 251
-4 0 -23 -11 -42 -25z"/>
<path d="M608 1287 l-137 -92 -1 -112 0 -112 93 -3 92 -3 3 -59 c2 -32 -1 -63
-5 -67 -13 -13 -93 39 -93 62 0 16 -7 19 -45 19 l-45 0 0 -54 0 -53 108 -63
c59 -34 122 -71 140 -82 l32 -20 0 206 0 206 -95 0 -95 0 5 36 c2 20 6 37 7
38 2 1 19 14 39 28 41 30 49 28 49 -14 0 -27 2 -28 45 -28 l45 0 0 130 c0 72
-1 130 -2 130 -2 0 -65 -42 -140 -93z"/>
<path d="M1240 1010 c0 -216 4 -370 9 -370 5 0 70 44 145 97 l136 96 0 104 0
103 -65 0 c-36 0 -68 1 -72 3 -5 1 -9 -19 -11 -45 -3 -46 -2 -48 22 -48 22 0
26 -5 26 -30 0 -23 -9 -35 -45 -60 l-45 -31 0 176 c0 96 3 175 8 175 4 0 24
-11 44 -25 25 -17 38 -34 40 -52 3 -26 6 -28 48 -28 l45 0 3 51 3 52 -136 101
c-74 56 -140 101 -145 101 -6 0 -10 -133 -10 -370z"/>
</g>
</svg>
